<svg version="1.0" xmlns="http://www.w3.org/2000/svg" width="512.000000" height="512.000000" viewBox="0 0 512.000000 512.000000" preserveAspectRatio="xMidYMid meet">
  <metadata>
    <rdf:RDF xmlns:rdf="http://www.w3.org/1999/02/22-rdf-syntax-ns#" xmlns:rdfs="http://www.w3.org/2000/01/rdf-schema#" xmlns:dc="http://purl.org/dc/elements/1.1/">
      <rdf:Description dc:format="image/svg+xml" dc:Label="1" dc:ContentProducer="001191330110MACRLGPT8B00000" dc:ProduceID="466036771" dc:ReservedCode1="tCOynmjkXy8hUULgUGS85hAtrpNHoTvIubfCj8TsK6g=" dc:ContentPropagator="001191330110MACRLGPT8B00000" dc:PropagateID="466036771" dc:ReservedCode2="tCOynmjkXy8hUULgUGS85hAtrpNHoTvIubfCj8TsK6g="/>
    </rdf:RDF>
  </metadata>
  <g transform="translate(0.000000,512.000000) scale(0.100000,-0.100000)" fill="#000000" stroke="none">
    <path d="M2714 3880 c-53 -22 -70 -97 -34 -143 19 -24 20 -40 20 -286 l0 -261 -96 0 c-92 0 -97 -1 -125 -29 l-29 -29 0 -236 c0 -200 2 -237 16 -250 21 -21 40 -20 64 4 19 19 20 33 20 235 l0 215 94 0 c84 0 98 3 120 23 l25 22 4 282 c3 282 3 283 27 308 33 35 32 87 0 120 -28 28 -75 39 -106 25z"/>
    <path d="M2462 3738 c-8 -8 -12 -59 -12 -165 0 -152 0 -154 24 -164 17 -8 29 -8 45 0 19 11 21 21 23 109 3 133 -2 204 -14 219 -13 16 -50 17 -66 1z"/>
    <path d="M1450 3660 c-13 -8 -15 -49 -15 -267 l0 -258 63 -87 c34 -47 62 -89 62 -92 0 -3 -85 -6 -190 -6 l-190 0 0 136 c0 131 1 137 25 166 34 40 33 82 -4 119 -38 37 -88 39 -128 5 -36 -31 -39 -93 -5 -129 21 -22 22 -32 22 -184 l0 -161 31 -26 31 -26 248 0 249 0 91 -120 c50 -66 93 -127 96 -135 5 -13 -18 -15 -180 -15 -113 0 -186 4 -186 10 0 16 -40 32 -78 32 -28 0 -43 -7 -64 -31 -15 -17 -28 -40 -28 -51 0 -53 49 -100 104 -100 13 0 38 11 54 25 30 25 30 25 245 25 l215 0 83 -112 c45 -62 81 -115 78 -118 -11 -13 -186 3 -224 20 -72 34 -135 -3 -135 -80 0 -45 32 -78 82 -86 27 -5 40 -1 65 20 30 25 35 26 165 26 l134 0 27 -42 27 -42 -2 -366 -3 -365 -80 -3 c-43 -2 -85 -8 -92 -14 -19 -15 -16 -52 5 -71 17 -15 67 -17 511 -17 320 0 499 4 512 10 22 12 26 62 6 78 -7 6 -49 12 -92 14 l-80 3 -3 355 c-1 195 0 365 3 377 3 12 17 35 31 52 l26 31 129 0 c118 0 133 -2 160 -22 66 -49 154 -9 152 68 -2 74 -84 112 -149 69 -22 -14 -50 -19 -121 -20 -51 -1 -93 1 -93 5 0 7 57 89 118 170 19 25 46 48 61 53 14 4 113 7 219 6 187 -1 195 -1 229 -25 49 -33 87 -31 124 5 60 60 24 151 -59 151 -24 0 -49 -8 -65 -20 -24 -19 -38 -20 -211 -18 l-185 3 100 133 99 132 246 0 c256 0 292 5 308 45 3 9 6 87 6 173 0 147 1 157 22 179 16 17 23 37 23 65 0 78 -91 116 -152 64 -36 -31 -39 -93 -5 -129 21 -22 22 -32 22 -160 l0 -137 -196 0 -196 0 24 33 c13 17 44 59 69 91 l44 59 3 253 c3 221 1 254 -13 268 -21 20 -49 21 -69 0 -14 -13 -16 -50 -16 -249 l0 -233 -268 -359 c-147 -197 -322 -433 -390 -524 l-122 -166 0 -392 0 -391 -70 0 -70 0 0 273 c-1 223 -3 275 -15 291 -8 11 -15 35 -15 54 0 24 -8 42 -29 63 -60 60 -151 24 -151 -59 0 -50 25 -81 70 -91 l35 -7 3 -262 2 -263 -127 3 -128 3 -5 395 -5 395 -239 320 c-132 176 -306 409 -388 517 l-148 197 0 235 c0 200 -2 237 -16 250 -17 18 -42 20 -64 6z"/>
    <path d="M1988 3444 c-51 -27 -64 -91 -28 -137 19 -23 20 -41 21 -269 1 -133 4 -253 7 -265 4 -11 128 -145 276 -297 219 -226 273 -276 295 -276 27 0 97 67 459 441 l122 126 0 260 c0 247 1 261 20 278 29 26 27 86 -4 122 -34 39 -98 39 -132 0 -30 -35 -31 -85 -4 -120 19 -24 20 -40 20 -269 l0 -243 -241 -240 -240 -240 -240 244 -239 243 0 240 c0 225 1 241 20 265 37 47 23 111 -30 138 -36 18 -47 18 -82 -1z"/>
  </g>
</svg>