<svg xmlns="http://www.w3.org/2000/svg" viewBox="-21.6 -21.600030963347137 691.2 261.2000619266943" font-family="Alibaba PuHuiTi" width="600px" style="background-color: rgb(238, 242, 246);"><defs id="infographic-defs"><symbol xmlns="http://www.w3.org/2000/svg" fill="none" stroke="currentColor" stroke-linecap="round" stroke-linejoin="round" stroke-width="2" viewBox="0 0 24 24" id="rsc-1658292109"><path d="m11 7 6 6M4 16 15.7 4.3a1 1 0 0 1 1.4 0l2.6 2.6a1 1 0 0 1 0 1.4L8 20H4z"/></symbol><symbol xmlns="http://www.w3.org/2000/svg" fill="none" stroke="currentColor" stroke-linecap="round" stroke-linejoin="round" stroke-width="2" viewBox="0 0 24 24" id="rsc-536651776"><path d="M5.5 5.5A2.5 2.5 0 0 0 3 8c0 7.18 5.82 13 13 13a2.5 2.5 0 1 0 0-5 8 8 0 0 1-8-8 2.5 2.5 0 0 0-2.5-2.5"/><path d="M5.195 5.519 3.952 3.53A1 1 0 0 1 4.8 2h1.392a1 1 0 0 1 .848 1.53L5.795 5.52M18.482 18.225l1.989-1.243a1 1 0 0 1 1.53.848v1.392a1 1 0 0 1-1.53.848l-1.991-1.245"/></symbol><symbol xmlns="http://www.w3.org/2000/svg" viewBox="0 0 512 512" id="rsc-870249383">
  <path d="M328.98 157.63v-5.9a15 15 0 0 0 9.72-14.02v-53.71a30.07 30.07 0 0 0-30.03-30.03h-7.67v-8.97c0-24.81-20.19-45-45-45s-45 20.19-45 45v8.97h-7.67a30.07 30.07 0 0 0-30.03 30.03v53.7c0 6.43 4.04 11.9 9.72 14.03v5.9a80.47 80.47 0 0 0-48.28 73.65v240.39a40.38 40.38 0 0 0 40.33 40.33h161.86a40.38 40.38 0 0 0 40.34-40.33v-240.38a80.47 80.47 0 0 0-48.29-73.66zm-164.24 89.26h182.52v169.2h-182.52zm76.26-201.89c0-8.27 6.73-15 15-15s15 6.73 15 15v8.97h-30zm-37.67 38.97 105.37.03v38.7h-105.4zm-1.41 98.75a15 15 0 0 0 11.1-14.49v-15.52h85.96v15.52a15 15 0 0 0 11.1 14.49 50.37 50.37 0 0 1 35.08 34.17h-178.32a50.37 50.37 0 0 1 35.08-34.17zm135.01 299.28h-161.86a10.34 10.34 0 0 1-10.33-10.33v-25.59h182.52v25.59c0 5.7-4.63 10.33-10.33 10.33z"/>
  <path d="M310.5 276.02c-6.14-.68-37.41-3.2-54.5 13.4-17.09-16.6-48.36-14.08-54.5-13.4a15 15 0 0 0-13.25 13.25c-.69 6.18-3.24 37.87 13.77 54.87 9.61 9.61 21.12 14.5 32.15 14.5 2.21 0 4.4-.21 6.55-.6v14.4a15 15 0 0 0 30 0v-14.5c2.33.46 4.71.7 7.11.7 11.03 0 22.54-4.89 32.15-14.5 17-17 14.46-48.69 13.77-54.87a15 15 0 0 0-13.26-13.25zm-87.27 46.9c-2.99-2.98-4.62-9.97-5.22-17.14 7.15.6 14.18 2.24 17.15 5.22 4.64 4.64 8.04 11.17 3.64 15.56-4.4 4.4-10.93 1.01-15.57-3.63zm65.54 0c-4.64 4.65-11.17 8.04-15.57 3.64-4.4-4.4-1-10.92 3.64-15.56 2.99-3 9.98-4.62 17.15-5.22-.61 7.14-2.25 14.17-5.22 17.15z"/>
</symbol><symbol xmlns="http://www.w3.org/2000/svg" xmlns:xlink="http://www.w3.org/1999/xlink" xml:space="preserve" viewBox="0 0 512 512" id="rsc-185208199">
  <path d="M401.44 250.12v-23.1a16.1 16.1 0 0 0-16.1-16.1h-34.88v-29.52h19.85c8.9 0 16.1-7.2 16.1-16.1v-51.52a16.1 16.1 0 0 0-16.1-16.1h-3.06a115.1 115.1 0 0 0-68.58-78.76 16.1 16.1 0 0 0-15.84-18.92h-53.66a16.1 16.1 0 0 0-15.84 18.92 115.1 115.1 0 0 0-68.58 78.76h-3.06a16.1 16.1 0 0 0-16.1 16.1v51.52c0 8.9 7.2 16.1 16.1 16.1h19.85v29.52h-34.88a16.1 16.1 0 0 0-16.1 16.1v23.1a16.09 16.09 0 0 0 0 32.15v23.1c0 8.9 7.2 16.1 16.1 16.1h34.88v108.99a40.16 40.16 0 0 0-24.69 37.02v28.42c0 8.9 7.21 16.1 16.1 16.1h206.1c8.88 0 16.1-7.2 16.1-16.1v-28.42a40.16 40.16 0 0 0-24.7-37.02v-108.98h34.9c8.88 0 16.1-7.21 16.1-16.1v-23.1a16.09 16.09 0 0 0 0-32.16zm-239.9 39.15h-18.78v-46.15h18.78v46.15zm94.46-246.4c35.76 0 66.26 22.9 77.65 54.8h-155.3c11.39-31.9 41.89-54.8 77.65-54.8zm86.94 436.93h-173.88v-12.32a7.91 7.91 0 0 1 7.9-7.9h.68 156.72.68c4.36 0 7.9 3.54 7.9 7.9v12.32zm-149.2-52.43v-245.97h18.13v245.97h-18.13zm50.33 0 0 0v-245.97h23.86v245.97h-23.86zm56.06 0 0 0v-245.97h18.13v245.97h-18.13zm-142.34-278.17v-19.32h196.42v19.32h-196.42zm211.45 140.07h-18.78v-46.15h18.78v46.15z"/>
</symbol><symbol xmlns="http://www.w3.org/2000/svg" viewBox="0 0 512 512" id="rsc-667015653">
  <path d="M391.5 65.22h-271c-66.44 0-120.5 54.05-120.5 120.5v140.56c0 66.45 54.06 120.5 120.5 120.5h271c66.44 0 120.5-54.05 120.5-120.5v-140.56c0-66.45-54.05-120.5-120.5-120.5zm90.5 261.06c0 49.9-40.6 90.5-90.5 90.5h-271c-49.9 0-90.5-40.6-90.5-90.5v-140.56c0-49.9 40.6-90.5 90.5-90.5h271c49.9 0 90.5 40.6 90.5 90.5z"/>
  <path d="M295.36 263.97a15 15 0 0 0-14.33 10.54 52.45 52.45 0 0 0-23.45-5.52 52.84 52.84 0 0 0-52.78 52.78 52.84 52.84 0 0 0 52.78 52.78c8.42 0 16.38-1.99 23.45-5.51a15 15 0 0 0 29.33-4.46v-85.61a15 15 0 0 0-15-15zm-37.78 80.58c-12.56 0-22.78-10.22-22.78-22.78s10.22-22.78 22.78-22.78 22.78 10.22 22.78 22.78-10.22 22.78-22.78 22.78z"/>
  <path d="M178.42 341.9a15 15 0 0 0-21.13 1.85 32.1 32.1 0 0 1-3.24 3.34c-5.83 5.2-13.29 7.83-22.16 7.83-24 0-43.54-19.54-43.54-43.55s19.53-43.54 43.54-43.54a43.3 43.3 0 0 1 24.34 7.43 15 15 0 1 0 16.8-24.86 73.2 73.2 0 0 0-41.14-12.57c-40.55 0-73.54 33-73.54 73.54s33 73.55 73.54 73.55c16.22 0 30.78-5.33 42.11-15.43a62.22 62.22 0 0 0 6.27-6.46 15 15 0 0 0-1.85-21.13z"/>
  <path d="M348.89 211.16c-.07 0-.13 0-.2 0-4.07.05-8.3.1-12.4.13 3.5-4.8 7.61-10.56 12.44-17.46 5.69-8.12 9.26-15.58 10.94-22.8a45.6 45.6 0 0 0 .78-6.51 35.76 35.76 0 0 0-35.71-35.72 35.78 35.78 0 0 0-35.05 28.81 15 15 0 1 0 29.44 5.78 5.72 5.72 0 0 1 11.29.47l-.13 1.01c-.66 2.38-2.26 6.22-6.13 11.76a914.64 914.64 0 0 1-24.45 33.53c-5.34 7-9.2 12.05-6.76 20a15.51 15.51 0 0 0 9.93 10.1c1.99.67 3.33 1.11 19.67 1.11 6.3 0 14.85-.06 26.52-.21a15 15 0 0 0-.18-30z"/>
  <path d="M415.24 127.08a38.46 38.46 0 0 0-38.41 38.41v37.44a38.46 38.46 0 0 0 38.4 38.42 38.45 38.45 0 0 0 38.42-38.41v-37.45a38.46 38.46 0 0 0-38.41-38.4zm8.4 75.85a8.42 8.42 0 0 1-16.81 0v-37.44a8.42 8.42 0 0 1 16.82 0z"/>
</symbol></defs><rect x="0" y="0" width="648" height="218" fill="#eef2f6" data-element-type="background"/><defs data-element-type="btn-icon-defs"><symbol xmlns="http://www.w3.org/2000/svg" class="icon" viewBox="0 0 1024 1024" version="1.1" width="200" height="200" id="btn-add-icon">
  <path d="M512 1024C229.216 1024 0 794.784 0 512S229.216 0 512 0s512 229.216 512 512-229.216 512-512 512z m0-960C264.576 64 64 264.576 64 512s200.576 448 448 448 448-200.576 448-448S759.424 64 512 64z m192 480h-160v160a32 32 0 0 1-64 0v-160h-160a32 32 0 0 1 0-64h160v-160a32 32 0 0 1 64 0v160h160a32 32 0 0 1 0 64z" fill="#339900"/>
</symbol><symbol xmlns="http://www.w3.org/2000/svg" viewBox="0 0 1025 1024" version="1.1" width="200" height="200" id="btn-remove-icon">
  <path d="M874.971429 149.942857C776.228571 54.857143 648.228571 0 512.914286 0S245.942857 54.857143 150.857143 149.942857c-201.142857 201.142857-201.142857 522.971429 0 724.114286C245.942857 969.142857 377.6 1024 512.914286 1024s266.971429-54.857143 362.057143-149.942857c201.142857-201.142857 201.142857-522.971429 0-724.114286m-51.2 672.914286C739.657143 906.971429 629.942857 950.857143 512.914286 950.857143s-226.742857-43.885714-310.857143-128c-171.885714-171.885714-171.885714-449.828571 0-621.714286C286.171429 117.028571 395.885714 73.142857 512.914286 73.142857s226.742857 43.885714 310.857143 128c171.885714 171.885714 171.885714 449.828571 0 621.714286" fill="#E63C33"/>
  <path d="M772.571429 475.428571H253.257143c-21.942857 0-36.571429 14.628571-36.571429 36.571429 0 10.971429 3.657143 18.285714 10.971429 25.6s14.628571 10.971429 25.6 10.971429H768.914286c21.942857 0 36.571429-14.628571 36.571428-36.571429s-14.628571-36.571429-32.914285-36.571429" fill="#E63C33"/>
</symbol></defs><defs><radialGradient id="#f54900-badge" cx="50%" cy="50%" r="50%"><stop offset="0%" stop-color="#f54900"/><stop offset="100%" stop-color="#8f2b00"/></radialGradient><radialGradient id="#ffb900-badge" cx="50%" cy="50%" r="50%"><stop offset="0%" stop-color="#ffb900"/><stop offset="100%" stop-color="#996f00"/></radialGradient><radialGradient id="#009689-badge" cx="50%" cy="50%" r="50%"><stop offset="0%" stop-color="#009689"/><stop offset="100%" stop-color="#00302c"/></radialGradient><radialGradient id="#fe9a00-badge" cx="50%" cy="50%" r="50%"><stop offset="0%" stop-color="#fe9a00"/><stop offset="100%" stop-color="#985c00"/></radialGradient><radialGradient id="#104e64-badge" cx="50%" cy="50%" r="50%"><stop offset="0%" stop-color="#104e64"/><stop offset="100%" stop-color="#02090c"/></radialGradient></defs><g id="infographic-container" x="0" y="0" width="648" height="218"><g x="159" y="0" width="330" height="34" transform="translate(159, 0)"><g width="330" height="34"><foreignObject overflow="visible" x="0" y="0" width="330" height="34" data-element-type="title" data-x="0" data-y="0" data-horizontal-align="CENTER" data-vertical-align="TOP"><span xmlns="http://www.w3.org/1999/xhtml" style="overflow: visible; color: rgb(38, 38, 38); font-size: 24px; line-height: 1.4; width: 100%; height: 100%; display: flex; flex-wrap: wrap; word-break: break-word; white-space: pre-wrap; text-align: center; place-content: flex-start center; align-items: flex-start;">配料表"红灯"成分（尽量避免）</span></foreignObject></g></g><g x="0" y="34" transform="translate(0, 34)"><g data-element-type="items-group"><g x="0" y="0" width="200" height="80"><rect data-element-type="shape" x="0" y="0" width="200" height="80" fill="#f549001a" rx="8" ry="8"/><ellipse x="8" y="8" width="32" height="32" fill="url(##f54900-badge)" cx="24" cy="24" rx="16" ry="16"/><use x="12" y="12" width="24" height="24" fill="#ffffff" data-element-type="item-icon" data-indexes="0" href="#rsc-667015653" style="color: rgb(255, 255, 255);"/><g x="48" y="8" width="144" height="40" transform="translate(48, 8)"><g x="0" y="10" transform="translate(0, 10)" width="144" height="20"><foreignObject overflow="visible" x="0" y="0" width="144" height="20" data-element-type="item-label" data-x="0" data-y="0" data-horizontal-align="LEFT" data-vertical-align="MIDDLE" data-indexes="0"><span xmlns="http://www.w3.org/1999/xhtml" style="overflow: visible; color: rgb(38, 38, 38); font-weight: bold; font-size: 14px; line-height: 1.4; width: 100%; height: 100%; display: flex; flex-wrap: wrap; word-break: break-word; white-space: pre-wrap; text-align: left; place-content: center flex-start; align-items: center;">钠的多种形式</span></foreignObject></g></g><g x="8" y="48" transform="translate(8, 48)" width="184" height="27"><foreignObject overflow="visible" x="0" y="0" width="184" height="27" data-element-type="item-desc" data-x="0" data-y="0" data-horizontal-align="LEFT" data-vertical-align="TOP" data-word-wrap="true" data-indexes="0"><span xmlns="http://www.w3.org/1999/xhtml" style="overflow: visible; color: rgb(90, 90, 90); font-size: 11px; line-height: 1.2; width: 100%; height: 100%; display: flex; flex-wrap: wrap; word-break: break-word; white-space: pre-wrap; text-align: left; place-content: flex-start; align-items: flex-start;">食盐、谷氨酸钠、苯甲酸钠、亚硝酸钠等</span></foreignObject></g></g><g x="224" y="0" width="200" height="80" transform="translate(224, 0)"><rect data-element-type="shape" x="0" y="0" width="200" height="80" fill="#ffb9001a" rx="8" ry="8"/><ellipse x="8" y="8" width="32" height="32" fill="url(##ffb900-badge)" cx="24" cy="24" rx="16" ry="16"/><use x="12" y="12" width="24" height="24" fill="#ffffff" data-element-type="item-icon" data-indexes="1" href="#rsc-870249383" style="color: rgb(255, 255, 255);"/><g x="48" y="8" width="144" height="40" transform="translate(48, 8)"><g x="0" y="10" transform="translate(0, 10)" width="144" height="20"><foreignObject overflow="visible" x="0" y="0" width="144" height="20" data-element-type="item-label" data-x="0" data-y="0" data-horizontal-align="LEFT" data-vertical-align="MIDDLE" data-indexes="1"><span xmlns="http://www.w3.org/1999/xhtml" style="overflow: visible; color: rgb(38, 38, 38); font-weight: bold; font-size: 14px; line-height: 1.4; width: 100%; height: 100%; display: flex; flex-wrap: wrap; word-break: break-word; white-space: pre-wrap; text-align: left; place-content: center flex-start; align-items: center;">人工甜味剂</span></foreignObject></g></g><g x="8" y="48" transform="translate(8, 48)" width="184" height="27"><foreignObject overflow="visible" x="0" y="0" width="184" height="27" data-element-type="item-desc" data-x="0" data-y="0" data-horizontal-align="LEFT" data-vertical-align="TOP" data-word-wrap="true" data-indexes="1"><span xmlns="http://www.w3.org/1999/xhtml" style="overflow: visible; color: rgb(90, 90, 90); font-size: 11px; line-height: 1.2; width: 100%; height: 100%; display: flex; flex-wrap: wrap; word-break: break-word; white-space: pre-wrap; text-align: left; place-content: flex-start; align-items: flex-start;">阿斯巴甜、安赛蜜、糖精钠、三氯蔗糖</span></foreignObject></g></g><g x="448" y="0" width="200" height="80" transform="translate(448, 0)"><rect data-element-type="shape" x="0" y="0" width="200" height="80" fill="#0096891a" rx="8" ry="8"/><ellipse x="8" y="8" width="32" height="32" fill="url(##009689-badge)" cx="24" cy="24" rx="16" ry="16"/><use x="12" y="12" width="24" height="24" fill="#ffffff" data-element-type="item-icon" data-indexes="2" href="#rsc-1658292109" style="color: rgb(255, 255, 255);"/><g x="48" y="8" width="144" height="40" transform="translate(48, 8)"><g x="0" y="10" transform="translate(0, 10)" width="144" height="20"><foreignObject overflow="visible" x="0" y="0" width="144" height="20" data-element-type="item-label" data-x="0" data-y="0" data-horizontal-align="LEFT" data-vertical-align="MIDDLE" data-indexes="2"><span xmlns="http://www.w3.org/1999/xhtml" style="overflow: visible; color: rgb(38, 38, 38); font-weight: bold; font-size: 14px; line-height: 1.4; width: 100%; height: 100%; display: flex; flex-wrap: wrap; word-break: break-word; white-space: pre-wrap; text-align: left; place-content: center flex-start; align-items: center;">人工色素</span></foreignObject></g></g><g x="8" y="48" transform="translate(8, 48)" width="184" height="27"><foreignObject overflow="visible" x="0" y="0" width="184" height="27" data-element-type="item-desc" data-x="0" data-y="0" data-horizontal-align="LEFT" data-vertical-align="TOP" data-word-wrap="true" data-indexes="2"><span xmlns="http://www.w3.org/1999/xhtml" style="overflow: visible; color: rgb(90, 90, 90); font-size: 11px; line-height: 1.2; width: 100%; height: 100%; display: flex; flex-wrap: wrap; word-break: break-word; white-space: pre-wrap; text-align: left; place-content: flex-start; align-items: flex-start;">柠檬黄、日落黄、胭脂红、亮蓝</span></foreignObject></g></g><g x="0" y="104" width="200" height="80" transform="translate(0, 104)"><rect data-element-type="shape" x="0" y="0" width="200" height="80" fill="#fe9a001a" rx="8" ry="8"/><ellipse x="8" y="8" width="32" height="32" fill="url(##fe9a00-badge)" cx="24" cy="24" rx="16" ry="16"/><use x="12" y="12" width="24" height="24" fill="#ffffff" data-element-type="item-icon" data-indexes="3" href="#rsc-185208199" style="color: rgb(255, 255, 255);"/><g x="48" y="8" width="144" height="40" transform="translate(48, 8)"><g x="0" y="10" transform="translate(0, 10)" width="144" height="20"><foreignObject overflow="visible" x="0" y="0" width="144" height="20" data-element-type="item-label" data-x="0" data-y="0" data-horizontal-align="LEFT" data-vertical-align="MIDDLE" data-indexes="3"><span xmlns="http://www.w3.org/1999/xhtml" style="overflow: visible; color: rgb(38, 38, 38); font-weight: bold; font-size: 14px; line-height: 1.4; width: 100%; height: 100%; display: flex; flex-wrap: wrap; word-break: break-word; white-space: pre-wrap; text-align: left; place-content: center flex-start; align-items: center;">防腐剂</span></foreignObject></g></g><g x="8" y="48" transform="translate(8, 48)" width="184" height="27"><foreignObject overflow="visible" x="0" y="0" width="184" height="27" data-element-type="item-desc" data-x="0" data-y="0" data-horizontal-align="LEFT" data-vertical-align="TOP" data-word-wrap="true" data-indexes="3"><span xmlns="http://www.w3.org/1999/xhtml" style="overflow: visible; color: rgb(90, 90, 90); font-size: 11px; line-height: 1.2; width: 100%; height: 100%; display: flex; flex-wrap: wrap; word-break: break-word; white-space: pre-wrap; text-align: left; place-content: flex-start; align-items: flex-start;">苯甲酸及其钠盐、山梨酸及其钾盐</span></foreignObject></g></g><g x="224" y="104" width="200" height="80" transform="translate(224, 104)"><rect data-element-type="shape" x="0" y="0" width="200" height="80" fill="#104e641a" rx="8" ry="8"/><ellipse x="8" y="8" width="32" height="32" fill="url(##104e64-badge)" cx="24" cy="24" rx="16" ry="16"/><use x="12" y="12" width="24" height="24" fill="#ffffff" data-element-type="item-icon" data-indexes="4" href="#rsc-536651776" style="color: rgb(255, 255, 255);"/><g x="48" y="8" width="144" height="40" transform="translate(48, 8)"><g x="0" y="10" transform="translate(0, 10)" width="144" height="20"><foreignObject overflow="visible" x="0" y="0" width="144" height="20" data-element-type="item-label" data-x="0" data-y="0" data-horizontal-align="LEFT" data-vertical-align="MIDDLE" data-indexes="4"><span xmlns="http://www.w3.org/1999/xhtml" style="overflow: visible; color: rgb(38, 38, 38); font-weight: bold; font-size: 14px; line-height: 1.4; width: 100%; height: 100%; display: flex; flex-wrap: wrap; word-break: break-word; white-space: pre-wrap; text-align: left; place-content: center flex-start; align-items: center;">反式脂肪酸</span></foreignObject></g></g><g x="8" y="48" transform="translate(8, 48)" width="184" height="27"><foreignObject overflow="visible" x="0" y="0" width="184" height="27" data-element-type="item-desc" data-x="0" data-y="0" data-horizontal-align="LEFT" data-vertical-align="TOP" data-word-wrap="true" data-indexes="4"><span xmlns="http://www.w3.org/1999/xhtml" style="overflow: visible; color: rgb(90, 90, 90); font-size: 11px; line-height: 1.2; width: 100%; height: 100%; display: flex; flex-wrap: wrap; word-break: break-word; white-space: pre-wrap; text-align: left; place-content: flex-start; align-items: flex-start;">氢化植物油、人造奶油、植脂末</span></foreignObject></g></g></g><g data-element-type="btns-group" width="0" height="0" display="none"><rect fill="#F9C0C0" fill-opacity="0.3" width="20" height="20" data-indexes="0" data-element-type="btn-remove" x="90" y="80"/><rect fill="#B9EBCA" fill-opacity="0.3" width="20" height="20" data-indexes="1" data-element-type="btn-add" x="202" y="30"/><rect fill="#B9EBCA" fill-opacity="0.3" width="20" height="20" data-indexes="0" data-element-type="btn-add" x="-22" y="30"/><rect fill="#F9C0C0" fill-opacity="0.3" width="20" height="20" data-indexes="1" data-element-type="btn-remove" x="314" y="80"/><rect fill="#B9EBCA" fill-opacity="0.3" width="20" height="20" data-indexes="2" data-element-type="btn-add" x="426" y="30"/><rect fill="#F9C0C0" fill-opacity="0.3" width="20" height="20" data-indexes="2" data-element-type="btn-remove" x="538" y="80"/><rect fill="#B9EBCA" fill-opacity="0.3" width="20" height="20" data-indexes="3" data-element-type="btn-add" x="650" y="30"/><rect fill="#F9C0C0" fill-opacity="0.3" width="20" height="20" data-indexes="3" data-element-type="btn-remove" x="90" y="184"/><rect fill="#B9EBCA" fill-opacity="0.3" width="20" height="20" data-indexes="4" data-element-type="btn-add" x="202" y="134"/><rect fill="#B9EBCA" fill-opacity="0.3" width="20" height="20" data-indexes="3" data-element-type="btn-add" x="-22" y="134"/><rect fill="#F9C0C0" fill-opacity="0.3" width="20" height="20" data-indexes="4" data-element-type="btn-remove" x="314" y="184"/><rect fill="#B9EBCA" fill-opacity="0.3" width="20" height="20" data-indexes="5" data-element-type="btn-add" x="426" y="134"/><rect fill="#B9EBCA" fill-opacity="0.3" width="20" height="20" data-indexes="5" data-element-type="btn-add" x="426" y="134"/></g></g></g></svg>